<svg xmlns="http://www.w3.org/2000/svg" width="68" height="69" viewBox="0 0 68 69">
  <g fill="none" fill-rule="evenodd" transform="translate(-5 -7)">
    <g transform="translate(6.667 8.333)">
      <polygon fill="#C4EFFF" fill-rule="nonzero" points="19.078 41.421 16.039 2.314 31.334 5.429 34.372 44.536"/>
      <polygon fill="#FFF" fill-rule="nonzero" points="19.372 41.806 16.215 2.314 1.039 7.266 4.196 46.758"/>
      <polygon fill="#FFF" fill-rule="nonzero" points="48.817 39.6 45.785 .092 31.594 5.028 34.626 44.536"/>
      <polyline stroke="#095BA5" stroke-linecap="round" stroke-linejoin="round" stroke-width="2.5" points="34.717 44.604 18.881 41.774 3.596 46.758 .483 7.224 15.768 2.241 31.605 5.07 31.53 5.075 46.816 .092 49.928 39.626 34.643 44.609"/>
      <path fill="#FFCCBD" fill-rule="nonzero" d="M59.8151485 32.3448363L62.8812171 30.7010588C63.3072855 30.4737283 63.8369674 30.6342625 64.0651429 31.0598789 64.2933184 31.4854954 64.1338355 32.0154948 63.7086727 32.2445144L63.7086727 32.2445144 60.6426372 33.888273C60.3668868 34.0365222 60.0329663 34.0262678 59.7668321 33.8613777 59.5006979 33.6964876 59.3428481 33.4020534 59.3528243 33.0891371 59.3628005 32.7762208 59.5390847 32.4924393 59.8151816 32.3448363L59.8151485 32.3448363zM61.7159485 37.1428245L65.1756076 36.7773807C65.6564522 36.7258777 66.0880052 37.0739278 66.1395082 37.5547724 66.1910112 38.035617 65.8429611 38.46717 65.3621165 38.518673L65.3595934 38.5189428 61.8999295 38.8843866C61.5888285 38.9172483 61.2838279 38.7816433 61.0998184 38.5286528 60.9158088 38.2756623 60.8807458 37.9437215 61.0078373 37.6578694 61.1349287 37.3720172 61.4048664 37.1756814 61.7159674 37.1428197L61.7159674 37.1428197 61.7159485 37.1428245zM56.4657473 29.765286C56.2869073 29.6171681 56.174232 29.4040727 56.1525088 29.1728785 56.1307857 28.9416844 56.2017941 28.7113299 56.349913 28.5324907L56.3499982 28.5323819 58.5692455 25.8532481C58.876325 25.4796553 59.4281189 25.4257356 59.8017117 25.732815 60.1753046 26.0398945 60.2292243 26.5916884 59.9221449 26.9652813L59.9178845 26.9704079 57.6986419 29.6495369C57.5505219 29.8283758 57.337425 29.9410493 57.1062301 29.9627707 56.8750352 29.9844921 56.6446807 29.913482 56.4658419 29.7653617L56.4657473 29.765286z"/>
      <path fill="#FFF" fill-rule="nonzero" d="M53.2710641,42.22551 C54.3315201,42.22551 55.1911896,43.0851794 55.1911896,44.1456354 L55.1911896,52.8482721 C55.1911896,53.9087281 54.3315201,54.7683976 53.2710641,54.7683976 C52.2106081,54.7683976 51.3509387,53.9087281 51.3509387,52.8482721 L51.3509387,44.1456354 C51.3509387,43.0851794 52.2106081,42.22551 53.2710641,42.22551 Z" transform="rotate(-36.347 53.271 48.497)"/>
      <path fill="#095BA5" fill-rule="nonzero" d="M55.8584952,54.7487044 C55.717352,54.7487044 55.5764151,54.7379205 55.4368952,54.7165759 C54.7157159,54.6097348 54.0673039,54.2186805 53.6363224,53.6306588 L48.4786845,46.621144 C47.5865508,45.3984625 47.850876,43.6845967 49.0699349,42.7875192 C50.2889938,41.8904417 52.0039159,42.1478247 52.9059224,43.363241 L58.0635556,50.3727795 C58.9614937,51.5958105 58.6998806,53.3149094 57.4787745,54.2154635 C57.0097421,54.5621775 56.4417634,54.7491015 55.8584952,54.7487044 Z M50.6906845,43.9008775 C50.2791956,43.901186 49.9028595,44.1329248 49.7173716,44.5002359 C49.5318836,44.867547 49.5687872,45.3079671 49.8128147,45.6392884 L54.9704526,52.6488126 C55.3287291,53.1317998 56.010098,53.2341704 56.4944837,52.8777868 C56.9788694,52.5214033 57.0839058,51.8404402 56.7294206,51.3546635 L51.5717875,44.3451298 C51.3655142,44.0652755 51.0383483,43.9003181 50.6906893,43.9008775 L50.6906845,43.9008775 Z"/>
      <path fill="#FFCCBD" fill-rule="nonzero" d="M53.0784337,27.9164055 C52.8524128,27.8631378 52.6568099,27.7222649 52.5346558,27.5247775 C52.4125018,27.3272901 52.373803,27.0893656 52.4270727,26.8633452 L52.4271059,26.8632079 L53.2254301,23.4771298 C53.2968131,23.1722096 53.5256041,22.9286251 53.8254601,22.8383021 C54.1253161,22.7479792 54.4505809,22.8246705 54.6785035,23.0394335 C54.906426,23.2541965 55.0023027,23.5743316 54.9299508,23.8790233 L54.9299508,23.8790233 L54.1316313,27.2651014 C54.0206876,27.735763 53.5492051,28.0273737 53.0785425,27.9164339 L53.0784337,27.9164055 Z"/>
      <circle cx="47.448" cy="40.505" r="10.604" fill="#C4EFFF" fill-rule="nonzero"/>
      <path fill="#095BA5" fill-rule="nonzero" d="M47.4478632 31.5587393C52.3890144 31.5587393 56.3946088 35.5643337 56.3946088 40.5054848 56.3946088 45.4466359 52.3890144 49.4522304 47.4478632 49.4522304 42.5067121 49.4522304 38.5011177 45.4466359 38.5011177 40.5054848 38.5011177 35.5643337 42.5067121 31.5587393 47.4478632 31.5587393L47.4478632 31.5587393zM47.4478632 29.9019345C41.5916841 29.9019345 36.844313 34.6493057 36.844313 40.5054848 36.844313 46.3616639 41.5916841 51.1090351 47.4478632 51.1090351 53.3040424 51.1090351 58.0514135 46.3616639 58.0514135 40.5054848 58.0514135 34.6493057 53.3040424 29.9019345 47.4478632 29.9019345L47.4478632 29.9019345zM14.872973 10.767902C11.8300789 10.767268 9.36076776 13.2296337 9.35276458 16.2725176 9.34897425 17.0463728 9.51305072 17.811853 9.83373991 18.5161436 11.2182512 21.5391826 13.7805896 24.7345957 14.872973 26.0301838 15.9662938 24.7327022 18.5286464 21.5354335 19.9112689 18.5161436 20.2328881 17.8121264 20.3973155 17.0465082 20.3931981 16.2725176 20.3845175 13.2299091 17.9155936 10.767902 14.872973 10.767902zM14.872973 27.6302189C14.5646599 27.6308136 14.2716729 27.4958411 14.0717659 27.2611187 13.1832121 26.2297105 10.1474583 22.5808821 8.55256121 19.0997507 8.14760051 18.212448 7.93994882 17.2478552 7.9438754 16.2725176 7.95486648 12.4534487 11.0539074 9.36326826 14.872992 9.36326826 18.6920765 9.36326826 21.7911175 12.4534487 21.8021171 16.2725176 21.8063299 17.247893 21.5986564 18.2125546 21.1933991 19.0997649 19.599444 22.5771613 16.5627529 26.2287874 15.6704405 27.2648821 15.4707303 27.4972822 15.1793939 27.630749 14.872973 27.6302189L14.872973 27.6302189zM14.7649541 14.515069C13.8542818 14.5177363 13.1179228 15.2576268 13.1196097 16.1683015 13.1213024 17.0789761 13.8604021 17.8161288 14.7710781 17.815417 15.6817541 17.8147041 16.4196996 17.0763961 16.4199648 16.1657199 16.4173483 15.2534769 15.6772009 14.5152856 14.7649541 14.515069L14.7649541 14.515069zM14.7649541 19.2206123C13.0785764 19.2158663 11.7149137 17.8457393 11.7181517 16.159358 11.7214011 14.4729768 13.0903244 13.1081057 14.7767079 13.1098597 16.4630913 13.1116171 17.8291697 14.4793356 17.828902 16.1657199 17.8242335 17.8544884 16.453729 19.2209423 14.7649541 19.2206123L14.7649541 19.2206123z"/>
    </g>
    <ellipse cx="40" cy="73.333" fill="#E5E5E5" rx="17.778" ry="2.222"/>
  </g>
</svg>
