<?xml version="1.0" encoding="utf-8"?>
<!-- Svg Vector Icons : http://www.onlinewebfonts.com/icon -->
<!DOCTYPE svg PUBLIC "-//W3C//DTD SVG 1.1//EN" "http://www.w3.org/Graphics/SVG/1.1/DTD/svg11.dtd">
<svg version="1.1" xmlns="http://www.w3.org/2000/svg" xmlns:xlink="http://www.w3.org/1999/xlink" x="0px" y="0px" fill="#fff" viewBox="0 0 1000 1000" enable-background="new 0 0 1000 1000" xml:space="preserve">
<metadata> Svg Vector Icons : http://www.onlinewebfonts.com/icon </metadata>
<g><g transform="translate(0.000000,511.000000) scale(0.100000,-0.100000)"><path d="M4903.7,4919.6c-69.3-78.9-167.4-250.1-202-359.7c-9.6-30.8-26.9-13.5-84.7,84.6c-100,169.3-209.7,286.7-232.8,252c-19.2-28.9-75-296.3-84.7-396.3l-3.8-57.7l-34.6,65.4c-21.2,34.6-71.2,103.9-115.4,152c-84.7,90.4-321.3,279-334.8,265.5c-5.8-3.8,13.5-105.8,40.4-227c136.6-609.8,144.3-1202.4,17.3-1469.8c-26.9-59.6-50-78.9-111.6-96.2c-42.3-13.5-163.5-46.2-269.3-77C1877.5,2609.1,746.3,1381.7,523.2-161.3c-40.4-275.1-40.4-815.7,0-1079.3c128.9-827.2,490.6-1548.7,1088.9-2164.3c725.3-746.4,1685.3-1215.9,2789.6-1362.1c236.6-30.8,956.2-30.8,1192.8,0c736.8,98.1,1491,371.3,2048.9,744.5c881.1,588.7,1489,1415.9,1741.1,2364.4c103.9,392.4,142.4,798.4,113.5,1219.7c-88.5,1352.5-875.4,2516.4-2133.5,3158.9c-269.3,136.6-584.9,259.7-856.1,334.7c-105.8,30.8-227,63.5-269.3,77c-61.6,17.3-84.6,36.5-111.6,96.2c-127,267.4-119.3,860,17.3,1469.8c26.9,121.2,46.2,223.2,40.4,227c-13.5,13.5-250.1-175.1-334.7-265.5c-44.2-48.1-94.3-117.3-113.5-152l-34.6-65.4l-13.5,119.3c-17.3,142.4-73.1,352.1-96.2,352.1c-26.9,0-157.7-167.4-223.2-282.8c-50-90.4-63.5-103.9-73.1-73.1c-55.8,165.4-244.3,452.1-298.2,452.1C4988.4,5010,4946,4969.6,4903.7,4919.6z M7980,1085.4C8703.3,594.8,9038-484.4,8768.7-1448.3c-134.7-482.9-481-986.9-869.6-1262c-140.4-100-380.9-232.8-396.3-217.4c-3.9,5.8,30.8,76.9,78.9,159.7c311.7,542.5,500.2,1027.3,604.1,1554.5c48.1,250.1,48.1,979.2-1.9,1250.5c-63.5,348.2-177,731-298.2,1015.8C7826,1191.2,7826,1189.3,7980,1085.4z"/></g></g>
</svg>