<svg xmlns="http://www.w3.org/2000/svg" viewBox="0 0 385 281.54"><defs><style>.a{fill:#095ba5;}.b{fill:#fee2a2;}.c{fill:#0970e6;}.d{fill:#e5e5e5;}.e{fill:#ededed;}</style></defs><title>FAQ_HP-footer</title><path class="a" d="M45.178,111.379A45.167,45.167,0,0,0,7,180.7L.523,198.861c-.743,2.084,1.453,4.013,3.738,3.282l19.008-6.077a45.178,45.178,0,1,0,21.909-84.687Z"/><path class="b" d="M92.632,167.39A33.875,33.875,0,0,0,64,219.381L59.141,233a2.079,2.079,0,0,0,2.8,2.462L76.2,230.906A33.883,33.883,0,1,0,92.632,167.39Z"/><circle class="c" cx="75.591" cy="201.337" r="5.697"/><circle class="c" cx="109.375" cy="201.337" r="5.697"/><circle class="c" cx="92.483" cy="201.337" r="5.697"/><path class="b" d="M329.943,111.379a55.045,55.045,0,0,1,46.526,84.48l7.893,22.132c.906,2.54-1.77,4.89-4.555,4l-23.164-7.406a55.057,55.057,0,1,1-26.7-103.206Z"/><path class="c" d="M360.659,153.469a6.421,6.421,0,1,0-9.99-8.069l-24.885,30.81-14.027-16.7a6.421,6.421,0,0,0-9.832,8.26l18.989,22.6.022.026.03.035c.027.032.057.059.084.09.117.134.238.265.367.39.074.072.152.137.229.2s.13.123.2.18c.028.022.057.041.085.062.071.056.143.107.215.159.107.077.215.15.325.219.07.044.14.088.212.129.142.082.286.157.432.227.041.019.081.042.122.06a6.4,6.4,0,0,0,.6.234c.035.012.071.021.106.032.169.053.339.1.51.139l.163.034c.161.032.322.058.485.078.051.006.1.014.154.019.208.02.417.034.626.034h.007a6.243,6.243,0,0,0,.641-.036c.053-.005.106-.013.159-.02.165-.021.33-.048.493-.081l.17-.037q.257-.06.51-.142c.04-.013.08-.023.12-.037a6.346,6.346,0,0,0,.609-.245c.035-.016.069-.036.1-.053.155-.076.309-.157.459-.247.073-.043.143-.089.214-.135.112-.073.221-.148.329-.228.074-.055.148-.11.221-.169.032-.026.066-.048.1-.075.068-.058.129-.121.194-.181s.15-.134.222-.206c.132-.132.254-.27.373-.411.024-.029.052-.054.076-.084l.028-.034.022-.028Z"/><path class="b" d="M196.939,94.78A61.831,61.831,0,0,0,180.139,97a89.47,89.47,0,0,0-14.177,5.5,3.422,3.422,0,0,1-4.686-1.892l-8.07-21.71a3.406,3.406,0,0,1,1.462-4.136,79.4,79.4,0,0,1,20.283-8.023,103.854,103.854,0,0,1,25.694-3.335q15.807,0,26.063,4.2t16.183,10.621a36.444,36.444,0,0,1,8.275,14.084,49.834,49.834,0,0,1,2.347,14.575,37.21,37.21,0,0,1-2.1,12.723,52.366,52.366,0,0,1-5.312,10.747,66.232,66.232,0,0,1-7.412,9.387q-4.2,4.447-8.152,8.4-2.966,2.966-6.177,6.3a58.584,58.584,0,0,0-5.8,7.041,42.287,42.287,0,0,0-4.324,7.782,21.014,21.014,0,0,0-1.73,8.278v2.965h0a3.464,3.464,0,0,1-3.455,3.457H183.1a3.433,3.433,0,0,1-3.41-3.118q-.114-1.169-.164-2.441-.126-3.086-.123-5.311a41.9,41.9,0,0,1,1.729-12.477,48.916,48.916,0,0,1,4.57-10.375,58.579,58.579,0,0,1,6.548-9.017q3.707-4.2,7.658-8.153,5.681-5.681,10.376-11.242a19.162,19.162,0,0,0,4.694-12.721A13.282,13.282,0,0,0,210.4,98.98Q205.828,94.785,196.939,94.78Z"/><circle class="b" cx="196.309" cy="219.794" r="23.356"/><path class="a" d="M188.348,89.285a61.829,61.829,0,0,0-16.8,2.223,89.322,89.322,0,0,0-14.178,5.5,3.424,3.424,0,0,1-4.686-1.893L144.616,73.4a3.405,3.405,0,0,1,1.461-4.136,79.447,79.447,0,0,1,20.284-8.023,103.852,103.852,0,0,1,25.694-3.334q15.805,0,26.063,4.2T234.3,72.732a36.431,36.431,0,0,1,8.276,14.083,49.839,49.839,0,0,1,2.347,14.575,37.187,37.187,0,0,1-2.1,12.724,52.264,52.264,0,0,1-5.312,10.747,66.281,66.281,0,0,1-7.411,9.387q-4.2,4.446-8.152,8.4-2.965,2.964-6.177,6.3a58.584,58.584,0,0,0-5.8,7.041,42.254,42.254,0,0,0-4.324,7.782,21.01,21.01,0,0,0-1.73,8.278v2.964h0a3.465,3.465,0,0,1-3.455,3.458H174.505a3.42,3.42,0,0,1-3.407-3.083q-.116-1.184-.167-2.477-.128-3.085-.123-5.31a41.9,41.9,0,0,1,1.729-12.477,48.874,48.874,0,0,1,4.57-10.376,58.579,58.579,0,0,1,6.548-9.017q3.705-4.2,7.658-8.152,5.68-5.68,10.376-11.242a19.17,19.17,0,0,0,4.694-12.722,13.279,13.279,0,0,0-4.571-10.131Q197.239,89.289,188.348,89.285Z"/><circle class="a" cx="187.718" cy="214.299" r="23.356"/><path class="c" d="M153.4,76.7a3.406,3.406,0,0,1,1.462-4.136,79.433,79.433,0,0,1,20.284-8.023,103.846,103.846,0,0,1,25.693-3.335,79.581,79.581,0,0,1,20.516,2.344q-1.565-.748-3.241-1.44-10.255-4.2-26.063-4.2a103.852,103.852,0,0,0-25.694,3.334,79.447,79.447,0,0,0-20.284,8.023,3.405,3.405,0,0,0-1.461,4.136l8.069,21.71a3.423,3.423,0,0,0,4.686,1.893c1.037-.5,2.054-.96,3.059-1.405Z"/><path class="c" d="M179.72,176.207q-.128-3.085-.123-5.311a41.938,41.938,0,0,1,1.728-12.477,48.869,48.869,0,0,1,4.571-10.375,58.573,58.573,0,0,1,6.547-9.017q3.706-4.2,7.659-8.152,5.681-5.682,10.376-11.243a19.166,19.166,0,0,0,4.693-12.721A13.278,13.278,0,0,0,210.6,96.78a16.828,16.828,0,0,0-9.6-3.972c.279.216.551.44.809.676a13.279,13.279,0,0,1,4.571,10.131,19.172,19.172,0,0,1-4.694,12.722q-4.695,5.559-10.376,11.242-3.954,3.953-7.658,8.152a58.579,58.579,0,0,0-6.548,9.017,48.874,48.874,0,0,0-4.57,10.376,41.894,41.894,0,0,0-1.729,12.476q0,2.226.123,5.312.051,1.293.167,2.476a3.419,3.419,0,0,0,3.406,3.083h5.365C179.8,177.745,179.751,176.993,179.72,176.207Z"/><path class="c" d="M173.151,217.594a23.355,23.355,0,0,1,23.356-23.355,23.591,23.591,0,0,1,3.629.281,23.355,23.355,0,1,0-16.046,42.852A23.332,23.332,0,0,1,173.151,217.594Z"/><path class="d" d="M190.6,22.9a3.965,3.965,0,0,1-4.115-3.646l-1.434-14.86A3.965,3.965,0,0,1,188.389.029a3.846,3.846,0,0,1,4.3,3.449l1.468,15.215A3.847,3.847,0,0,1,190.6,22.9Z"/><path class="d" d="M170.274,28.684a3.964,3.964,0,0,1-5.186-1.824l-6.935-13.22a3.965,3.965,0,0,1,1.449-5.3,3.847,3.847,0,0,1,5.283,1.572l7.1,13.536A3.848,3.848,0,0,1,170.274,28.684Z"/><path class="d" d="M209.168,19.857,213.5,5.384A3.966,3.966,0,0,1,218.241,2.6a3.846,3.846,0,0,1,2.68,4.816l-4.33,14.474a3.965,3.965,0,0,1-4.743,2.781A3.846,3.846,0,0,1,209.168,19.857Z"/><path class="d" d="M226.581,27.08l10.308-11.043a3.964,3.964,0,0,1,5.484-.386,3.847,3.847,0,0,1,.262,5.506L232.327,32.2a3.964,3.964,0,0,1-5.484.386A3.848,3.848,0,0,1,226.581,27.08Z"/><ellipse class="e" cx="196.809" cy="272.96" rx="72.073" ry="8.58"/></svg>